<svg width="494" height="100" viewBox="0 0 494 100" fill="none" xmlns="http://www.w3.org/2000/svg">
<circle cx="23.8095" cy="23.8095" r="23.8095" fill="black"/>
<circle cx="23.8097" cy="23.8095" r="19.0476" fill="black"/>
<circle cx="23.8096" cy="23.8095" r="14.2857" fill="black"/>
<circle cx="23.8096" cy="23.8095" r="9.52381" fill="black"/>
<circle cx="76.1909" cy="76.1905" r="23.8095" fill="black"/>
<circle cx="76.1908" cy="76.1904" r="19.0476" fill="white"/>
<circle cx="76.1906" cy="76.1905" r="14.2857" fill="black"/>
<circle cx="76.1907" cy="76.1905" r="9.52381" fill="white"/>
<circle cx="23.8095" cy="76.1905" r="23.8095" fill="black"/>
<circle cx="23.8097" cy="76.1904" r="19.0476" fill="white"/>
<circle cx="23.8096" cy="76.1905" r="14.2857" fill="black"/>
<circle cx="23.8096" cy="76.1905" r="9.52381" fill="white"/>
<circle cx="76.1909" cy="23.8095" r="23.8095" fill="black"/>
<circle cx="76.1908" cy="23.8095" r="19.0476" fill="white"/>
<circle cx="76.1906" cy="23.8095" r="14.2857" fill="black"/>
<circle cx="76.1907" cy="23.8095" r="9.52381" fill="white"/>
<path d="M168.666 100C167.555 100 166.64 99.6311 165.922 98.8933C165.203 98.2227 164.844 97.2837 164.844 96.0765V66.499C162.688 69.6512 159.846 72.1999 156.318 74.1449C152.79 76.0228 148.837 76.9618 144.46 76.9618C139.429 76.9618 134.921 75.7545 130.936 73.34C126.951 70.8585 123.782 67.505 121.43 63.2797C119.144 59.0543 118 54.2924 118 48.994C118 43.6284 119.176 38.833 121.528 34.6076C123.946 30.3823 127.212 27.0624 131.328 24.6479C135.444 22.1663 140.083 20.9256 145.244 20.9256C150.34 20.9256 154.913 22.1328 158.964 24.5473C163.08 26.9618 166.314 30.2817 168.666 34.507C171.083 38.6653 172.357 43.3602 172.488 48.5915V96.0765C172.488 97.2837 172.128 98.2227 171.41 98.8933C170.691 99.6311 169.776 100 168.666 100ZM145.244 69.9195C149.033 69.9195 152.398 69.0141 155.338 67.2032C158.343 65.3923 160.695 62.9108 162.394 59.7585C164.158 56.5392 165.04 52.951 165.04 48.994C165.04 44.9698 164.158 41.3816 162.394 38.2294C160.695 35.0771 158.343 32.5956 155.338 30.7847C152.398 28.9068 149.033 27.9678 145.244 27.9678C141.52 27.9678 138.155 28.9068 135.15 30.7847C132.145 32.5956 129.76 35.0771 127.996 38.2294C126.232 41.3816 125.35 44.9698 125.35 48.994C125.35 52.951 126.232 56.5392 127.996 59.7585C129.76 62.9108 132.145 65.3923 135.15 67.2032C138.155 69.0141 141.52 69.9195 145.244 69.9195Z" fill="black"/>
<path d="M213.454 77.0624C208.816 77.0624 204.667 76.0899 201.008 74.1449C197.35 72.1328 194.442 69.2153 192.287 65.3924C190.196 61.5694 189.151 56.9081 189.151 51.4084V25.2515C189.151 24.1784 189.51 23.273 190.229 22.5352C190.947 21.7975 191.829 21.4286 192.875 21.4286C193.985 21.4286 194.9 21.7975 195.618 22.5352C196.337 23.273 196.696 24.1784 196.696 25.2515V51.4084C196.696 57.5788 198.362 62.173 201.694 65.1911C205.026 68.2093 209.208 69.7183 214.238 69.7183C217.44 69.7183 220.314 69.0811 222.862 67.8068C225.475 66.5325 227.533 64.7887 229.036 62.5754C230.539 60.3622 231.29 57.8471 231.29 55.0302V25.2515C231.29 24.1113 231.617 23.2059 232.27 22.5352C232.989 21.7975 233.903 21.4286 235.014 21.4286C236.125 21.4286 237.039 21.7975 237.758 22.5352C238.477 23.2059 238.836 24.1113 238.836 25.2515V72.5352C238.836 73.7425 238.477 74.715 237.758 75.4527C237.039 76.1234 236.125 76.4587 235.014 76.4587C233.903 76.4587 232.989 76.1234 232.27 75.4527C231.617 74.715 231.29 73.7425 231.29 72.5352V69.1147C229.134 71.5962 226.521 73.5412 223.45 74.9497C220.38 76.3581 217.048 77.0624 213.454 77.0624Z" fill="black"/>
<path d="M261.842 76.4587C260.666 76.4587 259.719 76.1234 259 75.4527C258.347 74.715 258.02 73.7425 258.02 72.5352V25.3521C258.02 24.1449 258.347 23.2059 259 22.5352C259.719 21.7975 260.666 21.4286 261.842 21.4286C262.953 21.4286 263.835 21.7975 264.488 22.5352C265.207 23.2059 265.566 24.1449 265.566 25.3521V72.5352C265.566 73.7425 265.207 74.715 264.488 75.4527C263.835 76.1234 262.953 76.4587 261.842 76.4587ZM261.744 10.9658C260.307 10.9658 259.065 10.4292 258.02 9.35614C256.975 8.28303 256.452 6.97519 256.452 5.4326C256.452 3.75587 256.975 2.44802 258.02 1.50905C259.131 0.503018 260.405 0 261.842 0C263.214 0 264.423 0.503018 265.468 1.50905C266.579 2.44802 267.134 3.75587 267.134 5.4326C267.134 6.97519 266.611 8.28303 265.566 9.35614C264.521 10.4292 263.247 10.9658 261.744 10.9658Z" fill="black"/>
<path d="M285.76 76.4587C283.473 76.4587 282.33 75.285 282.33 72.9376C282.33 71.7975 282.591 70.9591 283.114 70.4225L315.159 28.4708H285.368C283.081 28.4708 281.938 27.2971 281.938 24.9497C281.938 22.6023 283.081 21.4286 285.368 21.4286H321.725C324.012 21.4286 325.155 22.6023 325.155 24.9497C325.155 25.9557 324.959 26.727 324.567 27.2636L292.522 69.4165H322.117C324.404 69.4165 325.547 70.5902 325.547 72.9376C325.547 75.285 324.404 76.4587 322.117 76.4587H285.76Z" fill="black"/>
<path d="M359.536 76.4587C356.073 76.4587 352.97 75.6204 350.226 73.9437C347.548 72.2669 345.424 69.9866 343.856 67.1026C342.288 64.1516 341.504 60.7981 341.504 57.0422V30.1811H335.134C334.154 30.1811 333.338 29.8793 332.684 29.2757C332.031 28.605 331.704 27.8001 331.704 26.8612C331.704 25.8551 332.031 25.0503 332.684 24.4467C333.338 23.776 334.154 23.4406 335.134 23.4406H341.504V7.84708C341.504 6.70691 341.831 5.76794 342.484 5.03018C343.203 4.29242 344.118 3.92354 345.228 3.92354C346.339 3.92354 347.254 4.29242 347.972 5.03018C348.691 5.76794 349.05 6.70691 349.05 7.84708V23.4406H360.124C361.104 23.4406 361.921 23.776 362.574 24.4467C363.227 25.0503 363.554 25.8551 363.554 26.8612C363.554 27.8001 363.227 28.605 362.574 29.2757C361.921 29.8793 361.104 30.1811 360.124 30.1811H349.05V57.0422C349.05 60.4628 350.03 63.2797 351.99 65.493C353.95 67.6392 356.465 68.7123 359.536 68.7123H362.182C363.227 68.7123 364.077 69.0811 364.73 69.8189C365.383 70.5567 365.71 71.4956 365.71 72.6358C365.71 73.776 365.318 74.715 364.534 75.4527C363.75 76.1234 362.77 76.4587 361.594 76.4587H359.536Z" fill="black"/>
<path d="M402.395 76.9618C397.169 76.9618 392.497 75.7545 388.381 73.34C384.265 70.9255 381.031 67.6056 378.679 63.3803C376.328 59.1549 375.152 54.3595 375.152 48.994C375.152 43.5614 376.328 38.7324 378.679 34.507C381.031 30.2817 384.265 26.9618 388.381 24.5473C392.497 22.1328 397.169 20.9256 402.395 20.9256C407.622 20.9256 412.26 22.1328 416.311 24.5473C420.427 26.9618 423.661 30.2817 426.013 34.507C428.365 38.7324 429.574 43.5614 429.639 48.994C429.639 54.3595 428.43 59.1549 426.013 63.3803C423.661 67.6056 420.427 70.9255 416.311 73.34C412.26 75.7545 407.622 76.9618 402.395 76.9618ZM402.395 69.9195C406.184 69.9195 409.582 69.0141 412.587 67.2032C415.592 65.3923 417.944 62.9108 419.643 59.7585C421.342 56.6063 422.191 53.0181 422.191 48.994C422.191 44.9698 421.342 41.3816 419.643 38.2294C417.944 35.0101 415.592 32.495 412.587 30.6841C409.582 28.8732 406.184 27.9678 402.395 27.9678C398.606 27.9678 395.209 28.8732 392.203 30.6841C389.198 32.495 386.813 35.0101 385.049 38.2294C383.351 41.3816 382.501 44.9698 382.501 48.994C382.501 53.0181 383.351 56.6063 385.049 59.7585C386.813 62.9108 389.198 65.3923 392.203 67.2032C395.209 69.0141 398.606 69.9195 402.395 69.9195Z" fill="black"/>
<path d="M448.137 76.4587C446.961 76.4587 446.014 76.1234 445.295 75.4527C444.642 74.715 444.315 73.776 444.315 72.6358V25.3521C444.315 24.1449 444.642 23.2059 445.295 22.5352C446.014 21.7975 446.961 21.4286 448.137 21.4286C449.248 21.4286 450.13 21.7975 450.783 22.5352C451.502 23.2059 451.861 24.1449 451.861 25.3521V28.7726C453.952 26.2911 456.532 24.3461 459.603 22.9376C462.739 21.5292 466.103 20.8249 469.697 20.8249C474.335 20.8249 478.484 21.831 482.143 23.8431C485.801 25.7881 488.676 28.672 490.766 32.495C492.922 36.3179 494 40.9792 494 46.4789V72.6358C494 73.7089 493.641 74.6143 492.922 75.3521C492.204 76.0899 491.322 76.4587 490.276 76.4587C489.166 76.4587 488.251 76.0899 487.532 75.3521C486.814 74.6143 486.454 73.7089 486.454 72.6358V46.4789C486.454 40.2414 484.756 35.6472 481.359 32.6962C478.027 29.6781 473.878 28.169 468.913 28.169C465.711 28.169 462.804 28.8062 460.191 30.0805C457.643 31.3548 455.618 33.0986 454.115 35.3119C452.612 37.5252 451.861 40.0402 451.861 42.8571V72.6358C451.861 73.776 451.502 74.715 450.783 75.4527C450.13 76.1234 449.248 76.4587 448.137 76.4587Z" fill="black"/>
</svg>
