<svg width="108" height="108" viewBox="0 0 108 108" fill="none" xmlns="http://www.w3.org/2000/svg">
<path d="M0 18C0 8.05888 8.05887 0 18 0H90C99.9411 0 108 8.05887 108 18V90C108 99.9411 99.9411 108 90 108H18C8.05888 108 0 99.9411 0 90V18Z" fill="#1A74E2"/>
<circle cx="35.1429" cy="35.1429" r="17.1429" fill="white"/>
<circle cx="35.1428" cy="35.1428" r="13.7143" fill="white"/>
<circle cx="35.143" cy="35.143" r="10.2857" fill="white"/>
<circle cx="35.1429" cy="35.1429" r="6.85714" fill="white"/>
<circle cx="72.8571" cy="72.8571" r="17.1429" fill="white"/>
<circle cx="72.857" cy="72.857" r="13.7143" fill="#1A74E2"/>
<circle cx="72.8572" cy="72.8572" r="10.2857" fill="white"/>
<circle cx="72.8571" cy="72.8571" r="6.85714" fill="#1A74E2"/>
<circle cx="35.1429" cy="72.8571" r="17.1429" fill="white"/>
<circle cx="35.1428" cy="72.857" r="13.7143" fill="#1A74E2"/>
<circle cx="35.143" cy="72.8572" r="10.2857" fill="white"/>
<circle cx="35.1429" cy="72.8571" r="6.85714" fill="#1A74E2"/>
<circle cx="72.8571" cy="35.1429" r="17.1429" fill="white"/>
<circle cx="72.857" cy="35.1428" r="13.7143" fill="#1A74E2"/>
<circle cx="72.8572" cy="35.143" r="10.2857" fill="white"/>
<circle cx="72.8571" cy="35.1429" r="6.85714" fill="#1A74E2"/>
</svg>
