<?xml version="1.0" standalone="no"?>
<!DOCTYPE svg PUBLIC "-//W3C//DTD SVG 20010904//EN"
 "http://www.w3.org/TR/2001/REC-SVG-20010904/DTD/svg10.dtd">
<svg version="1.0" xmlns="http://www.w3.org/2000/svg"
 width="700.000000pt" height="700.000000pt" viewBox="0 0 700.000000 700.000000"
 preserveAspectRatio="xMidYMid meet">
<metadata>
Created by potrace 1.11, written by Peter Selinger 2001-2013
</metadata>
<g transform="translate(0.000000,700.000000) scale(0.100000,-0.100000)"
fill="#000000" stroke="none">
<path d="M1620 6849 c-561 -50 -1065 -398 -1310 -904 -160 -330 -205 -693
-130 -1052 114 -545 519 -1008 1045 -1193 191 -67 337 -91 550 -91 809 0 1491
596 1605 1401 14 98 14 344 0 445 -17 118 -63 287 -108 395 -90 214 -184 353
-357 526 -184 185 -349 293 -580 379 -130 48 -281 82 -430 94 -133 12 -149 12
-285 0z"/>
<path d="M5197 6850 c-203 -19 -384 -71 -572 -165 -325 -162 -570 -406 -733
-731 -255 -509 -220 -1131 91 -1607 282 -431 739 -701 1247 -735 823 -56 1536
486 1712 1301 19 87 22 133 22 317 0 237 -13 328 -75 515 -115 345 -364 663
-671 859 -292 186 -678 279 -1021 246z m413 -345 c389 -86 709 -328 888 -674
104 -201 145 -367 145 -596 1 -359 -124 -665 -373 -916 -236 -238 -525 -367
-861 -386 -652 -35 -1232 431 -1344 1081 -19 113 -19 314 0 436 66 404 333
760 710 948 124 61 218 90 415 126 56 10 347 -3 420 -19z"/>
<path d="M5230 6199 c-370 -43 -684 -299 -806 -657 -157 -461 54 -969 491
-1182 144 -71 224 -91 383 -97 155 -7 248 6 372 49 304 107 538 361 621 675
32 118 37 311 11 433 -38 185 -118 339 -244 474 -163 175 -364 276 -608 306
-94 11 -113 11 -220 -1z m255 -334 c211 -44 404 -215 475 -419 111 -322 -43
-673 -355 -811 -185 -82 -421 -66 -598 42 -123 74 -234 215 -279 353 -29 89
-36 263 -14 351 73 292 329 496 626 498 41 0 107 -6 145 -14z"/>
<path d="M1580 3269 c-465 -53 -898 -319 -1162 -713 -362 -542 -365 -1257 -5
-1796 261 -393 663 -647 1131 -716 148 -22 399 -15 541 15 437 91 799 335
1042 703 173 263 263 562 264 878 1 167 -11 272 -47 415 -110 441 -420 832
-824 1039 -135 69 -220 102 -338 132 -191 49 -414 64 -602 43z m411 -335 c695
-119 1166 -771 1063 -1473 -61 -415 -328 -782 -710 -974 -90 -45 -230 -92
-341 -113 -120 -23 -348 -24 -466 -1 -356 70 -654 268 -852 567 -295 443 -285
1028 26 1470 106 152 307 324 478 410 228 114 540 159 802 114z"/>
<path d="M1604 2615 c-392 -69 -706 -371 -789 -760 -27 -125 -24 -315 8 -435
76 -291 260 -515 528 -644 151 -73 226 -89 414 -90 191 -1 271 16 430 94 265
129 440 344 523 643 13 48 17 101 16 237 0 161 -2 182 -27 263 -128 416 -479
688 -907 702 -73 3 -145 -1 -196 -10z m321 -330 c103 -26 221 -92 294 -165
389 -384 175 -1032 -367 -1110 -63 -10 -100 -10 -162 -1 -162 24 -268 77 -381
191 -134 135 -197 300 -186 490 9 168 69 300 193 426 76 77 186 140 294 168
73 20 240 20 315 1z"/>
<path d="M5155 3269 c-752 -91 -1338 -685 -1425 -1444 -53 -463 112 -947 438
-1287 242 -252 519 -406 862 -479 143 -31 454 -34 605 -5 662 123 1173 628
1307 1289 20 96 23 142 23 317 -1 174 -4 221 -24 310 -68 317 -206 581 -420
803 -253 261 -548 420 -896 482 -110 20 -362 27 -470 14z m411 -334 c195 -34
402 -122 552 -234 100 -76 245 -226 305 -318 229 -346 285 -764 154 -1148
-122 -356 -392 -642 -737 -783 -408 -167 -856 -120 -1229 130 -97 65 -273 241
-338 338 -93 138 -148 262 -189 425 -35 136 -44 384 -20 525 77 443 370 810
785 985 73 31 246 79 316 88 82 11 320 6 401 -8z"/>
<path d="M5230 2624 c-315 -41 -597 -236 -745 -517 -173 -328 -146 -717 70
-1023 61 -86 198 -211 293 -268 94 -56 244 -110 352 -127 103 -16 294 -6 395
21 113 30 266 107 361 183 153 122 285 324 336 517 30 114 32 369 4 470 -55
200 -141 346 -284 481 -127 121 -269 199 -437 240 -78 20 -271 32 -345 23z
m270 -340 c119 -28 206 -78 301 -173 71 -70 94 -101 127 -171 52 -110 66 -173
65 -290 -1 -250 -135 -465 -359 -578 -96 -48 -175 -66 -294 -65 -185 1 -333
66 -464 203 -80 84 -136 184 -160 290 -20 83 -20 227 -1 308 57 240 255 429
510 485 48 11 215 6 275 -9z"/>
</g>
</svg>
